<?xml version="1.0" encoding="UTF-8" standalone="no"?><svg xmlns="http://www.w3.org/2000/svg" version="1.1" viewBox="0 0 64 64" width="64" height="64"><path fill="black" d="M 28.03579 4.541221 C 28.03579 7.0508604 27.888163 7.198486 24.04989 8.527119 C 21.245 9.412874 18.882987 11.036758 15.487592 14.432153 C 12.830327 17.089418 10.025436 19.599058 9.139681 20.041935 C 7.07292 21.075316 6.630042 25.061214 8.549178 26.389847 C 11.944572 28.899486 15.339967 26.389847 14.749463 21.961071 C 14.306586 19.451432 14.601837 18.713303 16.96385 16.35129 C 22.868884 10.446255 31.13593 8.379493 39.255352 10.741507 C 42.946 11.774888 44.71751 12.955894 47.965277 16.056037 C 50.179664 18.41805 51.951175 20.632439 51.951175 21.075316 C 51.951175 22.6992 47.5224 22.108697 46.636644 20.337187 C 46.193767 19.599058 43.97938 17.827548 41.76499 16.498915 C 36.007584 13.251146 29.36442 13.251146 23.75464 16.498915 C 19.47349 19.008554 17.70198 20.780065 18.44011 21.813446 C 18.73536 22.256323 21.687878 24.618337 24.935646 26.98035 C 28.33104 29.342364 31.283557 31.55675 31.431183 31.852003 C 31.726435 32.147255 28.773918 34.656895 24.935646 37.31416 C 21.097374 39.8238 17.997232 42.33344 17.997232 42.62869 C 17.997232 42.92394 19.030613 44.10495 20.21162 45.285956 C 27.29766 51.92912 39.255352 51.781493 45.75089 44.69545 C 47.5224 42.92394 51.951175 41.89056 51.951175 43.36682 C 51.951175 45.13833 46.78427 49.86236 42.650747 51.92912 C 35.85996 55.324514 29.512047 55.324514 22.868884 51.92912 C 16.520973 48.828976 14.011334 45.87646 14.601837 42.185813 C 15.044715 39.8238 14.749463 38.938044 13.42083 37.757037 C 11.944572 36.428405 11.64932 36.28078 9.730185 37.461786 C 6.039539 39.52855 6.630042 41.447684 12.682702 47.500344 C 17.554354 52.371997 24.345143 56.653146 27.150034 56.653146 C 27.740537 56.653146 28.03579 57.68653 28.03579 59.45804 C 28.03579 61.82005 28.33104 62.1153 29.8073 61.96768 C 30.988305 61.672425 31.57881 61.08192 31.57881 59.75329 C 31.57881 58.57228 32.021686 57.68653 32.90744 57.5389 C 33.940822 57.391276 34.236074 57.83415 34.236074 59.75329 C 34.236074 61.82005 34.531326 62.1153 36.007584 61.96768 C 37.336217 61.672425 37.63147 61.22955 37.63147 59.45804 C 37.483842 57.5389 37.92672 57.096024 42.20787 55.17689 C 44.865134 53.99588 48.1129 52.076745 49.58916 50.89574 C 51.80355 48.9766 56.527576 41.742935 56.6752 40.266677 C 56.6752 39.971425 54.31319 39.676174 51.36067 39.676174 C 46.34139 39.676174 46.04614 39.8238 44.27463 42.038187 C 42.060243 45.13833 36.745713 47.500344 32.61219 47.20509 L 29.36442 47.057466 L 39.99348 39.52855 L 50.474916 32.147255 L 39.845856 24.47071 L 29.216795 16.941792 L 32.169312 16.64654 C 35.85996 16.35129 42.946 19.599058 44.71751 22.40395 C 45.898515 24.027833 46.48902 24.323085 51.36067 24.323085 C 54.16556 24.323085 56.6752 24.027833 56.6752 23.584956 C 56.6752 23.289704 55.34657 21.075316 53.87031 18.713303 C 50.77017 14.136901 45.898515 10.151003 41.91262 8.674745 C 38.517223 7.641364 38.22197 7.346112 37.92672 4.541221 C 37.63147 2.9173366 37.18859 2.1792073 35.85996 2.0315815 C 34.531326 1.8839556 34.236074 2.1792073 34.236074 4.541221 C 34.236074 7.198486 34.08845 7.346112 32.61219 6.460357 C 31.726435 6.0174795 31.13593 4.9840985 31.283557 3.9507176 C 31.431183 2.7697107 31.13593 2.1792073 29.8073 2.0315815 C 28.33104 1.8839556 28.03579 2.1792073 28.03579 4.541221 Z M 41.026862 28.75186 C 43.24125 30.22812 45.01276 31.704378 45.01276 31.99963 C 45.01276 32.590133 28.183415 44.84308 26.26428 45.58121 C 25.673775 45.728833 24.49277 45.285956 23.459388 44.4002 L 21.687878 43.07157 L 29.06917 37.757037 C 33.202693 34.80452 36.598087 32.147255 36.598087 31.99963 C 36.45046 31.704378 33.202693 29.342364 29.216795 26.537473 C 25.230898 23.880207 21.98313 21.370568 21.98313 21.222942 C 21.98313 20.92769 22.868884 20.18956 24.04989 19.451432 C 26.116653 18.270425 26.116653 18.270425 31.57881 22.108697 C 34.531326 24.17546 38.812475 27.127976 41.026862 28.75186 Z M 12.239824 22.6992 C 12.830327 23.584956 11.354069 24.47071 10.320688 23.880207 C 9.434933 23.289704 10.025436 21.961071 11.058817 21.961071 C 11.501695 21.961071 11.944572 22.256323 12.239824 22.6992 Z M 12.239824 40.414303 C 12.830327 41.30006 11.354069 42.185813 10.320688 41.59531 C 9.434933 41.004806 10.025436 39.676174 11.058817 39.676174 C 11.501695 39.676174 11.944572 39.971425 12.239824 40.414303 Z"/></svg>
